<svg width="785" height="423" viewBox="0 0 785 423" fill="none" xmlns="http://www.w3.org/2000/svg">
<g clip-path="url(#clip0_179_2029)">
<path d="M728.28 393.011C728.28 402.873 727.371 412.519 725.648 421.865H25.2364C23.5504 414.133 22.6699 406.073 22.6699 397.815C22.6699 340.84 64.5951 293.942 118.482 287.862C123.483 163.683 223.098 64.5664 345.239 64.5664C451.073 64.5664 540 138.986 565.094 239.669C569.487 239.275 573.926 239.068 578.422 239.068C661.186 239.068 728.28 307.998 728.28 393.011Z" fill="#DCEAFF"/>
<path d="M521.987 421.865H24.7766C23.0812 414.133 22.1914 406.073 22.1914 397.815C22.1914 340.84 64.51 293.942 118.912 287.862C121.928 213.611 159.095 148.322 214.845 107.833L521.997 421.865H521.987Z" fill="#063170"/>
<path d="M394.967 353.442C483.706 353.442 555.643 281.377 555.643 192.48C555.643 103.583 483.706 31.5183 394.967 31.5183C306.228 31.5183 234.291 103.583 234.291 192.48C234.291 281.377 306.228 353.442 394.967 353.442Z" fill="#FFB450"/>
<path d="M545.162 192.471C545.162 234.583 527.899 272.651 500.071 299.957L287.682 87.1896C314.939 59.3117 352.939 42.0182 394.977 42.0182C477.919 42.0182 545.162 109.381 545.162 192.471Z" fill="#EEF5FF"/>
<path d="M500.07 299.957C472.981 326.549 435.88 342.932 394.976 342.932C312.025 342.932 244.781 275.569 244.781 192.471C244.781 151.475 261.145 114.326 287.681 87.1896L500.07 299.957Z" fill="#3E7FC1"/>
<path d="M460.805 192.48C460.805 197.453 460.262 202.295 459.213 206.949C458.988 207.972 458.735 208.985 458.454 209.989C454.193 225.537 444.386 238.796 431.3 247.485C420.885 254.401 408.399 258.435 394.967 258.435C387.052 258.435 379.465 257.037 372.431 254.476C366.774 252.411 361.481 249.596 356.676 246.143C343.226 236.497 333.559 221.897 330.318 205.007C329.541 200.953 329.129 196.768 329.129 192.48C329.129 179.569 332.829 167.52 339.236 157.358C340.069 156.026 340.959 154.721 341.886 153.455C346.054 147.778 351.103 142.795 356.826 138.704C359.439 136.846 362.184 135.176 365.059 133.703C374.033 129.114 384.186 126.525 394.958 126.525C397.627 126.525 400.259 126.684 402.845 126.994C415.087 128.458 426.299 133.281 435.525 140.524C450.914 152.601 460.796 171.377 460.796 192.48H460.805Z" fill="#D9D9D9"/>
<path d="M344.744 155.547C348.688 150.18 353.465 145.46 358.888 141.594C359.3 141.885 359.693 142.213 360.077 142.542C361.482 143.734 362.887 144.916 364.292 146.098C365.313 146.961 366.409 147.937 366.643 149.27C366.868 150.593 365.632 152.169 364.377 151.7C364.62 152.432 364.742 153.192 364.761 153.961C363.524 154.262 362.138 154.553 361.07 153.868C360.002 153.183 360.002 151.118 361.267 150.94C359.684 150.94 358.138 150.049 357.324 148.688C356.874 147.937 356.312 146.877 355.46 147.112C354.645 147.337 354.645 148.463 354.354 149.26C353.933 150.433 352.415 151.071 351.282 150.546C350.832 150.921 351.057 151.672 351.469 152.085C351.872 152.498 352.434 152.788 352.706 153.305C353.361 154.515 351.91 155.923 350.533 155.998C349.165 156.073 347.845 155.425 346.477 155.322C345.896 155.275 345.306 155.35 344.744 155.538V155.547Z" fill="#EEF5FF"/>
<path d="M387.128 228.559C386.669 229.816 386.21 231.074 385.751 232.331C384.918 234.639 384.028 237.013 382.314 238.777C380.731 240.41 378.426 241.527 377.668 243.666C377.321 244.642 377.349 245.721 377.068 246.716C376.6 248.386 375.326 249.7 374.015 250.816C373.893 250.919 373.771 251.023 373.65 251.126C368.301 249.174 363.29 246.509 358.738 243.244C358.756 243.047 358.766 242.84 358.775 242.643C358.878 238.064 355.637 234.217 353.071 230.436C350.504 226.654 348.472 221.531 350.954 217.684C351.694 216.539 352.809 215.131 352.022 214.034C351.451 213.245 350.298 213.292 349.352 213.058C347.601 212.617 346.411 211.068 345.147 209.773C343.892 208.479 342.103 207.296 340.398 207.878C340.089 205.795 337.344 205.41 335.312 204.866C334.797 204.725 334.291 204.547 333.804 204.322C333.064 200.484 332.68 196.524 332.68 192.471C332.68 180.254 336.183 168.853 342.243 159.235C342.43 160.305 343.142 161.271 344.191 161.515C344.866 161.675 345.615 161.543 346.252 161.815C347.207 162.219 347.61 163.373 348.434 164.002C349.09 164.518 349.952 164.658 350.645 165.118C351.338 165.578 351.797 166.638 351.198 167.211C353.371 167.305 354.766 164.762 354.729 162.585C354.691 160.408 353.783 158.306 353.83 156.129C355.319 156.026 356.864 155.932 358.269 156.429C359.674 156.936 360.92 158.212 360.901 159.704C362.203 159.92 362.625 157.64 363.936 157.414C365.191 157.208 365.753 158.897 365.997 160.145C366.456 162.481 367.542 164.687 369.116 166.46C370.174 167.652 371.533 169.247 370.671 170.598C369.566 172.325 366.503 170.833 364.976 172.203C365.735 173.178 366.821 173.882 368.02 174.192C366.662 177.382 361.576 176.463 359.103 178.884C358.017 179.953 357.595 181.52 356.78 182.815C355.703 184.532 353.961 185.715 352.528 187.16C351.095 188.595 349.886 190.603 350.355 192.574C350.626 193.728 351.198 195.398 350.064 195.755C348.21 194.479 347.751 191.288 345.512 191.007C343.498 190.753 342.121 193.24 340.107 193.578C338.937 193.775 337.56 193.221 336.614 193.944C335.64 194.685 335.827 196.196 336.23 197.35C336.867 199.198 338.29 201.253 340.22 200.953C341.25 200.794 342.178 199.94 343.208 200.118C344.182 200.287 344.753 201.272 345.194 202.154C345.99 203.74 346.786 205.326 347.582 206.912C348.388 208.516 349.54 210.355 351.329 210.383C352.153 210.402 352.912 210.008 353.68 209.689C357.576 208.075 362.232 208.404 365.866 210.571C367.13 211.322 368.301 212.288 369.697 212.729C371.364 213.245 373.518 213.142 374.399 214.643C375.073 215.788 374.642 217.421 375.532 218.406C376.001 218.922 376.703 219.119 377.387 219.298C379.532 219.851 381.677 220.414 383.831 220.968C385.067 221.287 386.388 221.662 387.194 222.657C388.486 224.261 387.84 226.617 387.138 228.559H387.128Z" fill="#EEF5FF"/>
<path d="M402.341 130.606C400.936 132.089 402.444 134.491 402.219 136.518C401.938 139.042 399.137 140.346 396.749 141.163C396.524 142.392 398.809 142.927 398.669 144.175C398.631 144.484 398.444 144.747 398.238 144.991C396.411 147.112 393.423 147.712 390.67 148.191C391.55 149.392 391.175 151.315 389.911 152.094C388.497 152.967 386.52 152.423 385.162 153.37C384.132 154.093 383.785 155.435 383.214 156.561C382.642 157.696 381.415 158.775 380.245 158.297C379.748 158.09 379.392 157.64 378.905 157.405C378.315 157.124 377.556 157.161 377.107 156.692C376.47 156.016 376.938 154.919 376.863 153.99C376.695 152.207 374.39 151.043 374.596 149.27C374.699 148.416 375.468 147.703 376.329 147.665C375.28 147.693 374.475 146.624 374.353 145.582C374.231 144.541 374.587 143.499 374.821 142.476C375.055 141.453 375.14 140.299 374.559 139.417C374.138 138.779 373.444 138.404 372.751 138.094C370.99 137.325 369.08 136.902 367.15 136.874C366.991 136.874 366.832 136.874 366.682 136.874C375.168 132.53 384.787 130.081 394.969 130.081C397.498 130.081 399.98 130.231 402.425 130.522C402.397 130.55 402.359 130.578 402.331 130.616L402.341 130.606Z" fill="#EEF5FF"/>
<path d="M358.242 202.942C359.385 202.314 360.846 202.286 362.008 202.877C362.307 203.027 362.626 203.29 362.579 203.618C362.551 203.815 362.401 203.975 362.251 204.106C361.727 204.575 361.015 204.997 360.359 204.744C359.582 204.444 359.235 203.28 358.401 203.28C358.401 203.149 358.579 203.046 358.692 203.111L358.242 202.933V202.942Z" fill="#EEF5FF"/>
<path d="M457.267 192.48C457.267 197.181 456.751 201.769 455.759 206.17C455.365 206.189 454.972 206.161 454.569 206.058C451.675 205.335 450.719 201.826 449.567 199.067C448.649 196.871 447.301 194.845 445.615 193.165C445.38 192.93 445.109 192.686 444.781 192.649C443.648 192.508 443.704 194.347 444.256 195.342C445.793 198.129 447.347 200.925 448.884 203.721C450.251 206.208 452.396 209.06 455.037 209.051C451 223.764 441.727 236.31 429.345 244.529C428.67 242.249 427.509 240.11 425.935 238.327C425.467 237.801 424.952 237.276 424.746 236.61C424.521 235.887 424.689 235.099 424.849 234.348C425.326 232.228 425.804 230.098 426.282 227.977C426.6 226.579 426.834 224.909 425.823 223.905C425.439 223.529 424.933 223.304 424.558 222.91C423.331 221.596 424.399 219.448 424.127 217.665C423.781 215.385 421.252 214.062 418.957 213.912C416.653 213.761 415.407 213.949 413.103 213.808C409.506 213.583 406.312 211.509 403.315 209.501C402.5 208.957 401.638 208.366 401.207 207.475C400.683 206.395 400.898 205.119 401.132 203.937C401.928 199.827 401.882 195.83 405.104 193.156C405.731 192.639 406.434 192.189 406.837 191.485C407.502 190.322 407.211 188.68 408.185 187.76C409.159 186.841 410.733 187.263 412.054 187.094C415.107 186.7 417.187 183.04 420.268 183.2C424.268 183.397 425.841 189.731 429.841 189.806C432.511 189.862 434.656 186.953 437.297 187.291C438.739 187.479 439.873 188.595 441.193 189.196C442.524 189.796 444.565 189.477 444.772 188.032C444.978 186.597 443.264 185.762 441.943 185.142C439.91 184.194 438.149 182.665 436.913 180.788C436.688 182.027 436.473 183.275 436.248 184.514C434.159 183.585 433.138 181.276 432.07 179.259C431.012 177.232 429.363 175.102 427.078 175.083C428.136 176.716 429.214 178.433 429.382 180.366C429.457 181.211 429.288 182.158 428.614 182.674C427.94 183.19 426.703 182.862 426.656 182.018C426.628 181.67 426.797 181.351 426.853 181.014C426.994 180.141 426.403 179.325 425.71 178.78C424.502 177.842 422.91 177.42 421.402 177.664C419.201 178.011 417.44 179.615 415.669 180.976C413.899 182.337 411.698 183.556 409.543 182.993C407.38 182.43 406.162 179.127 408.035 177.917C409.028 177.279 410.377 177.485 411.379 176.875C413.225 175.74 412.588 172.859 411.333 171.077C410.611 170.054 409.712 168.825 410.218 167.68C410.499 167.042 411.164 166.638 411.436 166C412.26 164.048 409 161.881 410.134 160.089C410.621 159.319 411.754 159.179 412.569 159.591C413.384 159.995 413.908 160.811 414.274 161.646C415.491 164.424 415.192 167.811 413.506 170.326C415.023 170.973 416.587 169.519 417.458 168.111C418.329 166.704 419.304 165.006 420.943 164.884C421.636 164.827 422.31 165.09 422.985 165.268C425.804 166.01 428.97 165.315 431.227 163.457C432.164 162.688 432.998 161.543 432.745 160.351C432.595 159.62 432.07 159.038 431.78 158.343C431.068 156.607 432.37 154.374 434.225 154.13C434.15 152.648 432.127 151.935 430.815 152.601C429.495 153.267 428.811 154.759 428.408 156.176C428.005 157.602 427.743 159.113 426.891 160.323C426.488 160.886 425.907 161.384 425.223 161.412C423.743 161.468 423.041 159.479 421.673 158.925C421.093 158.681 420.418 158.728 419.837 158.475C418.629 157.949 418.254 156.307 418.704 155.069C419.154 153.83 420.184 152.901 421.177 152.038C423.2 150.264 425.223 148.491 427.237 146.717C428.548 145.573 429.907 144.39 431.536 143.771C432.127 143.546 432.726 143.396 433.335 143.321C447.891 154.74 457.248 172.522 457.248 192.48H457.267Z" fill="#EEF5FF"/>
<path d="M407.184 164.443C407.325 164.311 407.503 164.18 407.699 164.208C407.971 164.236 408.121 164.527 408.214 164.78C408.58 165.756 408.842 166.882 408.402 167.821C407.961 168.768 406.547 169.134 405.835 168.468C405.058 167.746 406.023 165.484 407.184 164.443Z" fill="#EEF5FF"/>
<path d="M348.51 200.465C349.849 199.79 351.432 199.912 352.912 200.127C354.139 200.306 355.46 200.597 356.275 201.535C356.415 201.694 356.537 201.882 356.556 202.098C356.593 202.633 355.956 202.952 355.432 202.98C354.841 203.017 354.242 202.877 353.727 202.576C353.015 202.164 352.462 201.469 351.675 201.225C351.048 201.028 350.364 201.15 349.709 201.197C349.053 201.244 348.313 201.169 347.863 200.681C347.966 200.512 348.21 200.437 348.388 200.512L348.519 200.465H348.51Z" fill="#EEF5FF"/>
<path d="M490.105 223.145C490.536 221.803 489.796 220.367 488.466 219.936L395.961 190.106L394.396 194.957L486.902 224.787C488.241 225.218 489.674 224.477 490.105 223.145Z" fill="#234460"/>
<path d="M479.387 365.368L478.854 364.27C479.697 363.857 480.53 363.435 481.364 363.013L481.916 364.101C481.083 364.523 480.24 364.946 479.397 365.368H479.387Z" fill="#4C7DE6"/>
<path d="M394.854 384.895C392.971 384.895 391.079 384.867 389.206 384.81L389.243 383.59C391.098 383.647 392.981 383.675 394.854 383.675V384.895ZM397.673 384.876L397.655 383.656C399.509 383.628 401.401 383.581 403.265 383.497L403.321 384.716C401.448 384.801 399.547 384.848 397.673 384.876ZM386.386 384.698C384.504 384.613 382.612 384.501 380.748 384.369L380.841 383.149C382.696 383.29 384.579 383.393 386.443 383.478L386.386 384.698ZM406.141 384.566L406.066 383.346C407.939 383.234 409.822 383.102 411.667 382.943L411.77 384.163C409.925 384.322 408.023 384.463 406.141 384.566ZM377.938 384.144C376.055 383.975 374.163 383.787 372.318 383.562L372.458 382.352C374.294 382.568 376.167 382.765 378.041 382.924L377.938 384.144ZM414.58 383.9L414.458 382.68C416.322 382.492 418.205 382.267 420.031 382.033L420.191 383.243C418.345 383.487 416.463 383.703 414.58 383.9ZM369.517 383.215C367.653 382.971 365.78 382.69 363.935 382.389L364.131 381.179C365.967 381.479 367.831 381.751 369.686 381.995L369.526 383.206L369.517 383.215ZM422.982 382.858L422.804 381.648C424.649 381.376 426.513 381.076 428.34 380.757L428.555 381.958C426.719 382.286 424.837 382.586 422.982 382.858ZM361.143 381.911C359.279 381.582 357.415 381.216 355.598 380.841L355.851 379.64C357.659 380.015 359.513 380.381 361.359 380.71L361.143 381.911ZM431.328 381.451L431.103 380.25C432.939 379.903 434.784 379.518 436.601 379.115L436.863 380.306C435.037 380.71 433.182 381.094 431.337 381.451H431.328ZM352.844 380.241C351.008 379.828 349.163 379.387 347.355 378.927L347.655 377.745C349.454 378.204 351.289 378.645 353.107 379.049L352.844 380.241ZM439.608 379.668L439.327 378.476C441.135 378.045 442.961 377.585 444.769 377.097L445.087 378.279C443.27 378.767 441.434 379.237 439.617 379.668H439.608ZM344.62 378.204C342.813 377.716 340.986 377.191 339.188 376.647L339.544 375.474C341.323 376.018 343.14 376.534 344.939 377.022L344.62 378.204ZM447.804 377.519L447.466 376.346C449.284 375.821 451.091 375.277 452.843 374.723L453.208 375.887C451.447 376.45 449.63 376.994 447.804 377.519ZM336.481 375.802C334.673 375.22 332.865 374.62 331.114 373.991L331.516 372.837C333.268 373.456 335.057 374.057 336.855 374.629L336.481 375.793V375.802ZM455.887 375.014L455.503 373.86C457.273 373.269 459.062 372.64 460.795 372.002L461.217 373.147C459.465 373.794 457.676 374.423 455.887 375.023V375.014ZM328.444 373.034C326.665 372.377 324.894 371.692 323.161 370.989L323.62 369.853C325.334 370.548 327.105 371.233 328.866 371.889L328.444 373.034ZM463.858 372.143L463.418 371.007C465.16 370.332 466.912 369.628 468.626 368.915L469.094 370.041C467.371 370.763 465.61 371.467 463.858 372.152V372.143ZM320.548 369.909C318.806 369.178 317.064 368.408 315.359 367.629L315.865 366.522C317.551 367.292 319.284 368.052 321.016 368.783L320.548 369.909ZM471.698 368.924L471.211 367.808C472.916 367.066 474.63 366.278 476.316 365.481L476.84 366.588C475.145 367.395 473.412 368.174 471.698 368.924ZM312.792 366.438C311.097 365.631 309.392 364.796 307.716 363.932L308.268 362.844C309.936 363.698 311.631 364.533 313.317 365.33L312.792 366.438ZM305.205 362.619C303.548 361.737 301.88 360.817 300.251 359.888L300.85 358.828C302.47 359.747 304.128 360.658 305.777 361.54L305.205 362.619ZM297.796 358.481C296.167 357.523 294.546 356.529 292.963 355.534L293.61 354.502C295.183 355.487 296.794 356.473 298.415 357.43L297.796 358.481ZM290.584 354.014C289.001 352.982 287.418 351.922 285.891 350.861L286.585 349.857C288.111 350.908 289.676 351.969 291.249 352.991L290.584 354.014ZM283.568 349.229C282.051 348.14 280.524 347.014 279.016 345.869L279.756 344.893C281.255 346.029 282.772 347.145 284.28 348.225L283.568 349.219V349.229ZM276.778 344.152C275.307 342.998 273.827 341.806 272.375 340.605L273.153 339.667C274.595 340.868 276.066 342.05 277.527 343.195L276.778 344.162V344.152ZM270.221 338.776C268.797 337.556 267.374 336.298 265.987 335.032L266.802 334.131C268.179 335.388 269.603 336.636 271.017 337.847L270.221 338.776ZM263.898 333.117C262.54 331.851 261.173 330.528 259.833 329.195L260.695 328.323C262.035 329.646 263.393 330.959 264.741 332.217L263.908 333.108L263.898 333.117ZM257.838 327.197C256.536 325.864 255.225 324.494 253.942 323.105L254.841 322.28C256.115 323.659 257.417 325.029 258.709 326.352L257.838 327.206V327.197ZM252.05 321.013C250.804 319.624 249.558 318.189 248.34 316.753L249.268 315.965C250.476 317.391 251.712 318.817 252.958 320.197L252.05 321.013ZM246.533 314.576C245.352 313.14 244.172 311.658 243.011 310.156L243.976 309.406C245.128 310.898 246.299 312.371 247.469 313.797L246.523 314.576H246.533ZM241.306 307.914C240.182 306.412 239.067 304.874 237.981 303.344L238.974 302.64C240.042 304.16 241.156 305.69 242.271 307.182L241.297 307.914H241.306ZM236.37 301.026C235.302 299.469 234.253 297.883 233.251 296.316L234.281 295.659C235.274 297.217 236.323 298.793 237.381 300.341L236.379 301.036L236.37 301.026ZM231.752 293.933C230.769 292.347 229.785 290.714 228.848 289.091L229.907 288.471C230.844 290.085 231.818 291.699 232.792 293.276L231.752 293.923V293.933ZM227.443 286.651C226.525 285.018 225.617 283.348 224.755 281.687L225.832 281.124C226.694 282.766 227.593 284.427 228.502 286.051L227.443 286.651ZM223.472 279.182C222.62 277.502 221.795 275.795 221.009 274.106L222.114 273.59C222.901 275.26 223.725 276.958 224.568 278.628L223.481 279.182H223.472ZM219.828 271.544C219.06 269.836 218.302 268.091 217.59 266.374L218.714 265.905C219.426 267.622 220.175 269.348 220.943 271.047L219.828 271.553V271.544ZM216.522 263.765C215.829 262.029 215.154 260.246 214.508 258.482L215.651 258.06C216.288 259.815 216.962 261.579 217.655 263.315L216.522 263.765ZM213.562 255.818C212.944 254.035 212.344 252.233 211.782 250.45L212.944 250.084C213.506 251.858 214.096 253.65 214.714 255.423L213.562 255.827V255.818ZM210.949 247.748C210.405 245.946 209.89 244.107 209.413 242.305L210.593 241.986C211.07 243.779 211.586 245.599 212.12 247.391L210.949 247.738V247.748ZM208.701 239.566C208.242 237.745 207.811 235.897 207.408 234.058L208.598 233.795C209 235.615 209.431 237.454 209.881 239.265L208.701 239.566ZM206.818 231.289C206.443 229.441 206.087 227.574 205.769 225.735L206.968 225.528C207.286 227.358 207.633 229.216 208.017 231.046L206.818 231.289ZM205.301 222.938C205.01 221.09 204.739 219.204 204.495 217.336L205.703 217.177C205.947 219.035 206.209 220.902 206.5 222.741L205.291 222.938H205.301ZM204.158 214.54C203.942 212.682 203.755 210.787 203.596 208.91L204.814 208.807C204.973 210.674 205.16 212.551 205.366 214.399L204.158 214.54ZM203.38 206.086C203.249 204.219 203.146 202.323 203.071 200.437L204.289 200.39C204.364 202.257 204.467 204.144 204.598 206.001L203.38 206.086ZM202.978 197.622C202.931 195.924 202.912 194.188 202.912 192.48V191.964H204.13V192.471C204.13 194.169 204.149 195.896 204.195 197.585L202.978 197.613V197.622ZM204.158 189.158L202.94 189.14C202.968 187.254 203.034 185.358 203.118 183.491L204.336 183.547C204.252 185.405 204.195 187.291 204.158 189.168V189.158ZM204.486 180.732L203.268 180.657C203.38 178.79 203.521 176.894 203.69 175.018L204.907 175.13C204.739 176.998 204.598 178.884 204.486 180.732ZM205.179 172.334L203.961 172.203C204.158 170.345 204.383 168.459 204.636 166.591L205.844 166.751C205.591 168.609 205.376 170.485 205.179 172.334ZM583.976 165.728C583.723 163.889 583.433 162.022 583.115 160.173L584.313 159.967C584.632 161.825 584.922 163.701 585.175 165.55L583.967 165.719L583.976 165.728ZM206.237 163.964L205.029 163.786C205.301 161.937 205.61 160.061 205.947 158.203L207.146 158.419C206.818 160.267 206.509 162.134 206.237 163.964ZM582.627 157.415C582.29 155.575 581.916 153.717 581.522 151.906L582.712 151.653C583.105 153.483 583.48 155.35 583.826 157.199L582.627 157.424V157.415ZM207.67 155.66L206.471 155.425C206.827 153.586 207.221 151.719 207.633 149.889L208.822 150.161C208.41 151.982 208.026 153.83 207.67 155.66ZM580.913 149.167C580.492 147.356 580.042 145.516 579.565 143.715L580.745 143.405C581.222 145.226 581.681 147.074 582.103 148.894L580.913 149.167ZM209.459 147.421L208.27 147.13C208.71 145.31 209.188 143.461 209.675 141.65L210.855 141.97C210.368 143.771 209.89 145.601 209.459 147.412V147.421ZM578.834 140.994C578.338 139.211 577.804 137.4 577.242 135.598L578.403 135.232C578.965 137.043 579.499 138.864 579.995 140.656L578.825 140.984L578.834 140.994ZM211.614 139.267L210.443 138.929C210.967 137.128 211.52 135.307 212.091 133.515L213.253 133.89C212.682 135.664 212.129 137.475 211.614 139.267ZM576.389 132.924C575.809 131.141 575.19 129.349 574.563 127.613L575.705 127.2C576.333 128.955 576.961 130.756 577.541 132.549L576.38 132.933L576.389 132.924ZM214.133 131.216L212.981 130.822C213.581 129.039 214.218 127.238 214.873 125.474L216.016 125.896C215.37 127.651 214.733 129.433 214.133 131.207V131.216ZM573.598 124.976C572.933 123.222 572.249 121.467 571.547 119.759L572.68 119.29C573.383 121.007 574.076 122.771 574.75 124.535L573.607 124.967L573.598 124.976ZM217.018 123.269L215.885 122.828C216.569 121.073 217.281 119.299 218.011 117.573L219.135 118.051C218.405 119.769 217.702 121.523 217.018 123.278V123.269ZM570.46 117.179C569.72 115.462 568.952 113.735 568.175 112.055L569.28 111.539C570.067 113.228 570.835 114.964 571.575 116.691L570.451 117.169L570.46 117.179ZM220.25 115.452L219.135 114.955C219.894 113.238 220.681 111.502 221.496 109.803L222.601 110.329C221.795 112.018 221.009 113.744 220.259 115.452H220.25ZM566.985 109.531C566.17 107.852 565.327 106.163 564.475 104.521L565.561 103.958C566.423 105.618 567.266 107.317 568.081 109.006L566.985 109.541V109.531ZM223.819 107.795L222.723 107.251C223.556 105.572 224.418 103.873 225.308 102.212L226.385 102.785C225.505 104.446 224.643 106.125 223.819 107.795ZM563.164 102.034C562.283 100.401 561.365 98.7499 560.438 97.136L561.496 96.526C562.433 98.1494 563.351 99.8102 564.241 101.462L563.164 102.043V102.034ZM227.734 100.308L226.666 99.7164C227.565 98.0743 228.511 96.4228 229.467 94.7995L230.516 95.4188C229.56 97.0327 228.624 98.6748 227.734 100.308ZM559.023 94.715C558.068 93.1105 557.085 91.506 556.082 89.9389L557.113 89.2821C558.115 90.8585 559.108 92.4818 560.073 94.0864L559.023 94.715ZM231.958 93.0073L230.918 92.3692C231.902 90.7647 232.914 89.1507 233.935 87.5743L234.955 88.2406C233.944 89.7982 232.932 91.4027 231.958 92.9979V93.0073ZM554.565 87.5837C553.544 86.0355 552.486 84.4685 551.418 82.939L552.42 82.2352C553.497 83.7741 554.565 85.3505 555.586 86.9081L554.565 87.5837ZM236.51 85.9041L235.499 85.2191C236.548 83.6615 237.634 82.0945 238.721 80.565L239.714 81.2781C238.627 82.7888 237.55 84.3465 236.51 85.9041ZM549.797 80.6494C548.701 79.1293 547.577 77.6092 546.444 76.1454L547.409 75.4042C548.542 76.8773 549.676 78.4068 550.781 79.9363L549.788 80.6494H549.797ZM241.362 78.998L240.379 78.2755C241.484 76.7741 242.636 75.254 243.807 73.7715L244.762 74.5221C243.61 75.9953 242.458 77.506 241.362 78.998ZM544.721 73.931C543.578 72.4859 542.388 71.0128 541.18 69.5771L542.117 68.7889C543.334 70.2339 544.533 71.7165 545.685 73.1709L544.73 73.931H544.721ZM246.514 72.3264L245.568 71.557C246.739 70.1026 247.956 68.6388 249.183 67.2125L250.111 68.0101C248.893 69.4364 247.685 70.8814 246.514 72.3264ZM539.363 67.4377C538.145 66.0302 536.89 64.6227 535.635 63.2434L536.534 62.4176C537.808 63.8064 539.063 65.2232 540.29 66.6401L539.372 67.4377H539.363ZM251.956 65.8895L251.038 65.0825C252.284 63.675 253.558 62.2675 254.841 60.8975L255.731 61.7326C254.457 63.0932 253.192 64.4913 251.956 65.8895ZM533.715 61.1884C532.432 59.8372 531.12 58.4766 529.799 57.163L530.661 56.2997C531.991 57.6227 533.312 58.9927 534.595 60.3533L533.705 61.1884H533.715ZM257.67 59.6965L256.789 58.852C258.091 57.5008 259.431 56.1496 260.77 54.8453L261.622 55.7179C260.292 57.0222 258.962 58.364 257.67 59.7058V59.6965ZM527.804 55.1831C526.465 53.8882 525.097 52.5839 523.72 51.3265L524.545 50.4257C525.931 51.6925 527.308 52.9968 528.657 54.301L527.804 55.1737V55.1831ZM263.646 53.7568L262.803 52.8748C264.17 51.5799 265.566 50.285 266.952 49.0464L267.767 49.9566C266.39 51.1952 264.994 52.4713 263.646 53.7662V53.7568ZM521.632 49.4499C520.245 48.2113 518.812 46.982 517.379 45.781L518.166 44.8426C519.608 46.0531 521.051 47.2917 522.447 48.5397L521.641 49.4499H521.632ZM269.874 48.0987L269.078 47.1791C270.493 45.9499 271.944 44.7207 273.396 43.5384L274.164 44.4861C272.722 45.6684 271.279 46.8882 269.874 48.108V48.0987ZM515.216 43.9888C513.764 42.8065 512.284 41.6429 510.804 40.5075L511.544 39.5411C513.033 40.6764 514.522 41.8587 515.984 43.041L515.216 43.9888ZM276.337 42.7126L275.579 41.7555C277.049 40.592 278.548 39.4285 280.047 38.3025L280.777 39.2783C279.288 40.3949 277.799 41.5491 276.337 42.7032V42.7126ZM508.565 38.8185C507.076 37.7113 505.54 36.6041 504.004 35.5344L504.706 34.5304C506.242 35.6094 507.788 36.7167 509.296 37.8333L508.565 38.8185ZM283.035 37.6175L282.323 36.6322C283.84 35.525 285.395 34.4365 286.931 33.3856L287.615 34.399C286.088 35.4405 284.543 36.529 283.035 37.6269V37.6175ZM501.69 33.9392C500.145 32.8883 498.562 31.8561 496.988 30.8615L497.644 29.8293C499.227 30.8333 500.819 31.8749 502.374 32.9352L501.69 33.9486V33.9392ZM289.938 32.8226L289.263 31.7998C290.837 30.7583 292.429 29.7355 294.012 28.7596L294.649 29.8012C293.076 30.777 291.493 31.7904 289.928 32.8226H289.938ZM494.6 29.3695C493.007 28.3937 491.377 27.4272 489.766 26.4982L490.375 25.4379C491.996 26.3669 493.635 27.3427 495.236 28.328L494.6 29.3695ZM297.056 28.3374L296.429 27.2864C298.04 26.3199 299.679 25.3722 301.309 24.4527L301.908 25.5224C300.288 26.4325 298.658 27.3709 297.066 28.3374H297.056ZM487.322 25.1189C485.692 24.2181 484.025 23.3173 482.367 22.4634L482.929 21.3749C484.596 22.2382 486.273 23.139 487.921 24.0492L487.331 25.1189H487.322ZM304.353 24.1805L303.772 23.1015C305.412 22.21 307.098 21.3374 308.765 20.4929L309.308 21.5814C307.641 22.4165 305.974 23.2891 304.344 24.1712L304.353 24.1805ZM479.856 21.1873C478.189 20.3615 476.484 19.5358 474.789 18.757L475.304 17.6497C477.018 18.4379 478.732 19.2637 480.409 20.0988L479.866 21.1966L479.856 21.1873ZM311.818 20.3428L311.284 19.2449C312.97 18.4286 314.685 17.6216 316.389 16.8615L316.886 17.9782C315.19 18.7382 313.486 19.5358 311.818 20.3521V20.3428ZM472.223 17.5934C470.508 16.8334 468.766 16.0921 467.043 15.3884L467.502 14.253C469.235 14.9661 470.986 15.7074 472.71 16.4768L472.213 17.5934H472.223ZM319.443 16.8428L318.956 15.7168C320.67 14.9755 322.421 14.253 324.154 13.5586L324.604 14.694C322.88 15.379 321.138 16.1015 319.433 16.8334L319.443 16.8428ZM464.439 14.3468C462.697 13.6618 460.926 12.9956 459.165 12.3763L459.578 11.2221C461.338 11.8508 463.127 12.5264 464.879 13.2114L464.439 14.3468ZM327.227 13.6806L326.796 12.5358C328.547 11.8696 330.336 11.2222 332.107 10.6029L332.509 11.757C330.758 12.3669 328.978 13.0144 327.236 13.6712L327.227 13.6806ZM456.505 11.438C454.735 10.8374 452.937 10.2557 451.148 9.70205L451.503 8.53852C453.302 9.09213 455.11 9.68328 456.889 10.2838L456.496 11.438H456.505ZM335.16 10.8656L334.776 9.70205C336.546 9.12029 338.363 8.5479 340.162 8.01305L340.508 9.18597C338.719 9.72082 336.921 10.2838 335.151 10.8656H335.16ZM448.459 8.89509C446.67 8.36962 444.853 7.8723 443.045 7.40313L443.354 6.22084C445.172 6.69001 447.007 7.1967 448.796 7.72217L448.459 8.89509ZM343.215 8.40715L342.888 7.23423C344.686 6.72753 346.522 6.2396 348.348 5.77982L348.639 6.96212C346.831 7.41252 345.004 7.90045 343.215 8.40715ZM440.32 6.71815C438.512 6.27714 436.676 5.85489 434.85 5.47017L435.102 4.27849C436.938 4.67259 438.793 5.09484 440.61 5.53585L440.32 6.71815ZM351.364 6.30529L351.083 5.11361C352.919 4.68197 354.774 4.27849 356.6 3.90315L356.844 5.10422C355.027 5.47017 353.182 5.87365 351.364 6.30529ZM432.105 4.89779C430.288 4.54122 428.424 4.20342 426.588 3.89377L426.785 2.6927C428.639 3.00235 430.503 3.34015 432.339 3.7061L432.105 4.90717V4.89779ZM359.598 4.56937L359.373 3.3683C361.209 3.02112 363.073 2.70208 364.937 2.4112L365.124 3.62165C363.279 3.91253 361.415 4.23157 359.598 4.57876V4.56937ZM423.816 3.45275C421.98 3.17125 420.106 2.9179 418.252 2.6927L418.402 1.48225C420.266 1.70745 422.148 1.97019 423.994 2.25169L423.816 3.46214V3.45275ZM367.897 3.1994L367.728 1.98895C369.592 1.72622 371.475 1.48225 373.329 1.27582L373.46 2.48627C371.625 2.6927 369.751 2.92729 367.897 3.19002V3.1994ZM415.47 2.37367C413.625 2.17662 411.742 1.99834 409.887 1.85759L409.981 0.637751C411.854 0.778501 413.746 0.956787 415.601 1.15384L415.47 2.37367ZM376.261 2.19539L376.139 0.975551C378.013 0.797268 379.905 0.637751 381.769 0.506385L381.853 1.72622C380.008 1.8482 378.125 2.00772 376.261 2.186V2.19539ZM407.077 1.66992C405.213 1.55732 403.331 1.46348 401.476 1.3978L401.514 0.17797C403.378 0.243653 405.279 0.328104 407.152 0.450087L407.077 1.66992ZM384.654 1.5667L384.588 0.34687C386.461 0.243653 388.353 0.177967 390.227 0.13105L390.255 1.35089C388.391 1.3978 386.508 1.47287 384.644 1.5667H384.654ZM398.675 1.32274C396.812 1.2852 394.938 1.27582 393.065 1.29459V0.0747523C394.929 0.0559856 396.821 0.0653678 398.704 0.102901L398.685 1.32274H398.675Z" fill="#3E7FC1"/>
<path d="M584.707 171.574C584.604 170.645 584.501 169.707 584.379 168.778L585.587 168.628C585.7 169.566 585.812 170.495 585.915 171.433L584.697 171.565L584.707 171.574Z" fill="#4C7DE6"/>
<path d="M259.188 70.6558C262.744 67.094 262.744 61.3192 259.188 57.7574C255.633 54.1956 249.868 54.1956 246.313 57.7574C242.757 61.3192 242.757 67.094 246.313 70.6558C249.868 74.2177 255.633 74.2177 259.188 70.6558Z" fill="#3E7FC1"/>
<path d="M347.244 77.187C345.952 77.7312 345.343 79.2325 345.886 80.5274L393.722 194.253L398.415 192.274L350.579 78.5475C350.036 77.2526 348.537 76.6427 347.244 77.187Z" fill="#234460"/>
<path d="M263.478 153.539C263.666 152.854 264.387 152.451 265.071 152.657L394.593 191.026C394.949 191.129 395.146 191.504 395.043 191.851C394.752 192.846 393.694 193.428 392.691 193.127L264.349 155.106C263.684 154.909 263.291 154.205 263.478 153.539Z" fill="#073B76"/>
<path d="M406.058 195.078C407.497 188.938 403.694 182.792 397.565 181.351C391.436 179.91 385.301 183.719 383.863 189.859C382.424 195.999 386.226 202.145 392.355 203.586C398.484 205.027 404.619 201.218 406.058 195.078Z" fill="#717CBF"/>
<ellipse cx="394.714" cy="319.408" rx="13.5817" ry="13.6058" fill="#234460"/>
<ellipse cx="394.714" cy="70.75" rx="13.5817" ry="13.6058" fill="#234460"/>
<ellipse cx="269.201" cy="192.733" rx="13.5817" ry="13.6058" fill="#234460"/>
<ellipse cx="519.291" cy="192.733" rx="13.5817" ry="13.6058" fill="#234460"/>
<path d="M441.867 92.7164C456.647 99.0033 470.051 108.462 480.954 120.257C486.405 126.149 491.257 132.605 495.35 139.52L497.729 143.743C498.001 144.193 498.216 144.672 498.451 145.141C499.191 144.231 499.949 143.302 500.661 142.382C500.867 144.503 501.008 146.624 501.158 148.679C501.223 150.78 501.261 152.854 501.289 154.89C499.79 153.464 498.319 152.075 496.84 150.724C495.285 149.411 493.777 148.125 492.24 146.896C493.411 146.764 494.545 146.671 495.697 146.577C495.463 146.126 495.257 145.657 494.994 145.216L492.681 141.106C488.7 134.378 483.979 128.101 478.678 122.368C468.065 110.901 455.027 101.687 440.658 95.5784L441.867 92.7164Z" fill="#C8CBF8"/>
<path d="M350.69 297.217C335.938 290.93 322.562 281.472 311.678 269.695C306.236 263.812 301.393 257.356 297.3 250.45L294.93 246.237C294.659 245.787 294.443 245.308 294.209 244.839C293.469 245.749 292.711 246.678 291.999 247.598C291.793 245.477 291.652 243.356 291.502 241.301C291.427 239.2 291.399 237.126 291.371 235.09C292.87 236.516 294.34 237.905 295.82 239.256C297.375 240.57 298.883 241.855 300.419 243.084C299.248 243.216 298.115 243.31 296.954 243.403C297.188 243.854 297.394 244.323 297.656 244.764L299.96 248.864C303.932 255.583 308.653 261.86 313.945 267.584C324.538 279.041 337.549 288.246 351.898 294.355L350.69 297.217Z" fill="#EEF5FF"/>
<path d="M516.256 104.718C488.165 65.8238 442.83 42.6094 394.967 42.6094V41.6711C443.121 41.6711 488.746 65.0356 517.014 104.173L516.256 104.727V104.718Z" fill="#073B76"/>
<path d="M291.11 301.646C261.015 272.895 244.436 234.133 244.436 192.48H245.372C245.372 233.87 261.848 272.398 291.756 300.961L291.11 301.636V301.646Z" fill="#073B76"/>
<path d="M516.256 104.718C488.165 65.8238 442.83 42.6094 394.967 42.6094V41.6711C443.121 41.6711 488.746 65.0356 517.014 104.173L516.256 104.727V104.718Z" fill="#234460"/>
<path d="M291.11 301.646C261.015 272.895 244.436 234.133 244.436 192.48H245.372C245.372 233.87 261.848 272.398 291.756 300.961L291.11 301.636V301.646Z" fill="#234460"/>
<path d="M541.489 127.463C515.806 69.4645 458.294 31.9781 394.966 31.9781C383.839 31.9781 372.73 33.1229 361.939 35.3936L361.752 34.4741C372.608 32.1939 383.782 31.0398 394.966 31.0398C458.659 31.0398 516.508 68.742 542.341 127.078L541.489 127.463Z" fill="#234460"/>
<path d="M166.841 227.358C163.666 228.559 160.584 230.182 157.671 232.228C138.675 245.543 134.058 271.769 147.358 290.799C160.649 309.828 186.829 314.454 205.825 301.13C208.738 299.093 211.314 296.748 213.534 294.167C195.99 300.858 175.496 295.077 164.237 278.966C152.978 262.855 154.571 241.583 166.85 227.358H166.841Z" fill="#FFD357"/>
<path d="M54.7324 350.298C54.7324 350.57 54.7324 350.833 54.7605 351.096H127.23C127.249 350.768 127.268 350.439 127.268 350.092C127.268 342.069 120.767 335.557 112.759 335.557C111.176 335.557 109.659 335.81 108.235 336.28C105.799 329.036 98.9618 323.809 90.9065 323.809C82.0456 323.809 74.6647 330.115 72.9881 338.494C71.3676 337.753 69.5599 337.34 67.6584 337.34C60.5304 337.34 54.7418 343.129 54.7418 350.27L54.7324 350.298Z" fill="#DCEAFF"/>
<path d="M191.795 392.317H272.892C273.332 391.125 273.566 389.83 273.566 388.488C273.566 382.305 268.564 377.294 262.391 377.294C260.921 377.294 259.516 377.576 258.233 378.092C257.586 368.596 249.681 361.08 240.033 361.08C231.313 361.08 224.016 367.216 222.227 375.408C220.907 374.911 219.473 374.639 217.975 374.639C211.793 374.639 206.688 379.302 206.004 385.317C204.515 384.163 202.651 383.478 200.628 383.478C195.757 383.478 191.804 387.438 191.804 392.317H191.795Z" fill="#DCEAFF"/>
<path d="M158.346 350.12L161.933 356.679L168.49 360.273L161.933 363.867L158.346 370.426L154.768 363.867L148.211 360.273L154.768 356.679L158.346 350.12Z" fill="#FFD357"/>
<path d="M177.792 331.541L179.6 334.853L182.897 336.664L179.6 338.466L177.792 341.778L175.984 338.466L172.678 336.664L175.984 334.853L177.792 331.541Z" fill="#FFD357"/>
<path d="M615.749 368.99L617.557 372.302L620.854 374.104L617.557 375.915L615.749 379.227L613.941 375.915L610.635 374.104L613.941 372.302L615.749 368.99Z" fill="white"/>
<path d="M600.575 305.605L602.383 308.918L605.689 310.719L602.383 312.53L600.575 315.843L598.767 312.53L595.461 310.719L598.767 308.918L600.575 305.605Z" fill="white"/>
<path d="M304.495 401.062L306.303 404.374L309.6 406.185L306.303 407.996L304.495 411.299L302.687 407.996L299.381 406.185L302.687 404.374L304.495 401.062Z" fill="#FFD357"/>
<path d="M185.106 201.77L186.914 205.072L190.211 206.883L186.914 208.694L185.106 212.007L183.299 208.694L179.992 206.883L183.299 205.072L185.106 201.77Z" fill="#FFD357"/>
<path d="M82.4566 394.484C84.6397 394.484 86.4094 392.712 86.4094 390.525C86.4094 388.338 84.6397 386.565 82.4566 386.565C80.2736 386.565 78.5039 388.338 78.5039 390.525C78.5039 392.712 80.2736 394.484 82.4566 394.484Z" fill="#FFD357"/>
<path d="M237.673 331.353C237.673 333.54 235.903 335.313 233.72 335.313C231.538 335.313 229.768 333.54 229.768 331.353C229.768 329.167 231.538 327.394 233.72 327.394C235.903 327.394 237.673 329.167 237.673 331.353Z" fill="#FFD357"/>
<path d="M626.454 274.903C626.454 277.09 624.684 278.863 622.502 278.863C620.319 278.863 618.549 277.09 618.549 274.903C618.549 272.717 620.319 270.943 622.502 270.943C624.684 270.943 626.454 272.717 626.454 274.903Z" fill="white"/>
<path d="M91.7305 273.833H6.82164C6.36267 272.586 6.11914 271.225 6.11914 269.817C6.11914 263.343 11.3645 258.098 17.8181 258.098C19.3542 258.098 20.8248 258.398 22.1736 258.942C22.848 248.996 31.1281 241.133 41.2254 241.133C50.3579 241.133 57.9917 247.551 59.8744 256.137C61.2607 255.611 62.7594 255.33 64.3236 255.33C70.8053 255.33 76.135 260.209 76.8656 266.515C78.4204 265.304 80.3781 264.591 82.4949 264.591C87.5998 264.591 91.7305 268.738 91.7305 273.843V273.833Z" fill="#DCEAFF"/>
<path d="M84.2181 228.962L86.0259 232.275L89.3323 234.076L86.0259 235.887L84.2181 239.2L82.4104 235.887L79.1133 234.076L82.4104 232.275L84.2181 228.962Z" fill="#FFD357"/>
<path d="M69.2311 273.299H48.8398V274.237H69.2311V273.299Z" fill="#234460"/>
<path d="M22.632 258.97L21.6953 258.905C22.3884 248.667 30.9683 240.654 41.2154 240.654V241.592C31.4554 241.592 23.297 249.221 22.632 258.97Z" fill="#234460"/>
<path d="M690.709 204.706C712.028 204.706 729.309 187.394 729.309 166.038C729.309 144.682 712.028 127.369 690.709 127.369C669.391 127.369 652.109 144.682 652.109 166.038C652.109 187.394 669.391 204.706 690.709 204.706Z" fill="#FBC941"/>
<path d="M614.089 138.226C616.273 138.226 618.042 136.453 618.042 134.266C618.042 132.079 616.273 130.306 614.089 130.306C611.906 130.306 610.137 132.079 610.137 134.266C610.137 136.453 611.906 138.226 614.089 138.226Z" fill="#FFD357"/>
<path d="M694.953 158.512H783.487C783.965 157.208 784.227 155.801 784.227 154.327C784.227 147.571 778.766 142.11 772.031 142.11C770.43 142.11 768.894 142.42 767.489 142.983C766.786 132.614 758.159 124.413 747.622 124.413C738.105 124.413 730.144 131.113 728.177 140.055C726.734 139.511 725.17 139.211 723.54 139.211C716.787 139.211 711.223 144.297 710.464 150.874C708.844 149.617 706.802 148.866 704.591 148.866C699.271 148.866 694.953 153.192 694.953 158.522V158.512Z" fill="#DCEAFF"/>
<path d="M769.258 158.165H743.229V158.869H769.258V158.165Z" fill="#234460"/>
<path d="M728.514 140.13L727.83 139.98C729.853 130.756 738.171 124.066 747.612 124.066V124.77C738.499 124.77 730.462 131.235 728.514 140.14V140.13Z" fill="#234460"/>
<path d="M672.454 186.672H605.22C604.855 185.677 604.658 184.607 604.658 183.491C604.658 178.358 608.808 174.211 613.922 174.211C615.14 174.211 616.301 174.445 617.369 174.877C617.903 167.004 624.459 160.774 632.449 160.774C639.68 160.774 645.722 165.859 647.211 172.653C648.307 172.24 649.496 172.015 650.733 172.015C655.866 172.015 660.09 175.881 660.661 180.873C661.898 179.916 663.443 179.343 665.12 179.343C669.157 179.343 672.435 182.627 672.435 186.672H672.454Z" fill="#DCEAFF"/>
<path d="M637.328 186.325H621.836V187.028H637.328V186.325Z" fill="#234460"/>
<path d="M660.325 180.91C659.763 176.04 655.651 172.371 650.743 172.371C649.572 172.371 648.429 172.578 647.343 172.991L647.09 172.334C648.251 171.893 649.478 171.668 650.733 171.668C655.988 171.668 660.409 175.609 661.009 180.835L660.316 180.92L660.325 180.91Z" fill="#234460"/>
<path d="M702.578 222.141L704.385 225.453L707.692 227.264L704.385 229.075L702.578 232.378L700.77 229.075L697.473 227.264L700.77 225.453L702.578 222.141Z" fill="#FFD357"/>
<path d="M651.136 420.814H639.793C639.793 420.814 647.689 391.979 638.21 365.152L638.116 365.293C638.116 365.293 621.425 344.556 620.095 321.82C618.755 299.084 623.766 282.701 615.748 265.642C611.084 255.724 615.57 245.477 623.42 242.043C629.068 239.575 636.468 240.645 643.455 247.917C660.146 265.304 647.782 299.412 646.79 313.131C645.975 324.156 648.635 338.635 649.693 343.88L649.731 343.833C649.731 343.833 670.534 380.259 651.117 420.805L651.136 420.814Z" fill="#255899"/>
<path d="M647.924 421.912L647.24 421.771C647.334 421.33 656.344 377.172 644.533 362.6C630.155 344.875 630.502 313.769 633.33 290.799C636.974 261.128 621.528 244.332 621.369 244.163L621.875 243.675C622.034 243.844 637.714 260.866 634.024 290.874C631.214 313.713 630.858 344.612 645.076 362.149C657.103 376.975 648.308 420.073 647.933 421.902L647.924 421.912Z" fill="#255899"/>
<path d="M639.793 420.805C639.793 420.805 623.439 390.037 636.787 357.608C650.134 325.17 669.167 316.809 682.852 301.768C696.537 286.717 701.876 277.69 713.556 283.039C725.236 288.387 726.576 310.128 709.547 326.512C692.528 342.895 675.265 342.172 660.147 364.627C640.786 393.387 651.137 420.805 651.137 420.805H639.784H639.793Z" fill="#377EC4"/>
<path d="M633.726 366.948L633.049 366.768C633.758 364.039 634.914 361.136 635.961 358.506C640.539 347.005 645.89 337.506 653.257 328.974L653.787 329.438C646.466 337.902 641.162 347.345 636.61 358.771C635.572 361.373 634.425 364.247 633.726 366.948Z" fill="#DCEAFF"/>
<path d="M645.544 422.109C645.394 421.668 631.25 378.064 649 354.887C656.662 344.884 667.209 337.096 677.409 329.57C694.737 316.772 711.11 304.695 713.218 283.001L713.92 283.067C711.785 305.071 695.29 317.25 677.831 330.134C667.668 337.631 657.168 345.391 649.562 355.309C632.037 378.186 646.068 421.443 646.218 421.874L645.553 422.1L645.544 422.109Z" fill="#234460"/>
<path d="M673.353 421.161C673.353 421.161 668.838 400.377 687.422 387.907C706.005 375.436 717.367 373.269 717.367 362.065C717.367 351.584 711.41 349.416 705.462 349.416C698.905 349.416 679.544 356.379 671.18 378.157C664.867 394.606 664.867 409.61 666.852 421.171H673.343L673.353 421.161Z" fill="#327BBF"/>
<path d="M669.794 420.814C669.784 420.692 668.417 408.015 673.231 393.715C677.681 380.503 688.443 363.144 714.482 355.497L714.679 356.172C688.939 363.735 678.299 380.879 673.896 393.921C669.119 408.081 670.468 420.617 670.478 420.748L669.775 420.823L669.794 420.814Z" fill="#234460"/>
</g>
<defs>
<clipPath id="clip0_179_2029">
<rect width="785" height="423" fill="white"/>
</clipPath>
</defs>
</svg>
